<?xml version="1.0" encoding="UTF-8"?>
<svg version="1.1" xmlns="http://www.w3.org/2000/svg" width="512" height="512">
<path d="M0 0 C1.01790619 0.00215515 2.03581238 0.0043103 3.08456421 0.00653076 C17.69363523 0.05620146 32.02575853 0.30709809 46.375 3.3125 C47.34985352 3.51117676 48.32470703 3.70985352 49.32910156 3.91455078 C97.7109774 14.03517194 141.69928269 35.9516877 177.375 70.3125 C178.3640332 71.26068604 178.3640332 71.26068604 179.37304688 72.22802734 C188.86130305 81.37247479 197.6012044 90.66984009 205.375 101.3125 C206.23306152 102.46355017 207.09113451 103.61459177 207.94921875 104.765625 C213.98736829 112.95680614 219.34595521 121.47054105 224.375 130.3125 C224.73948242 130.94430176 225.10396484 131.57610352 225.47949219 132.22705078 C247.08534998 169.97532572 256.85198095 212.74189997 256.6875 255.9375 C256.68534485 256.95540619 256.6831897 257.97331238 256.68096924 259.02206421 C256.63129854 273.63113523 256.38040191 287.96325853 253.375 302.3125 C253.07698486 303.77478027 253.07698486 303.77478027 252.77294922 305.26660156 C242.65232806 353.6484774 220.7358123 397.63678269 186.375 433.3125 C185.74287598 433.97185547 185.11075195 434.63121094 184.45947266 435.31054688 C175.31502521 444.79880305 166.01765991 453.5387044 155.375 461.3125 C154.22394983 462.17056152 153.07290823 463.02863451 151.921875 463.88671875 C143.73224019 469.92427396 135.22961724 475.30707302 126.375 480.3125 C125.66778809 480.7146875 124.96057617 481.116875 124.23193359 481.53125 C101.09654164 494.5566741 75.92537591 503.30551461 49.9375 508.625 C49.21860596 508.77235596 48.49971191 508.91971191 47.7590332 509.0715332 C33.08339502 511.86090125 18.55831162 512.66142619 3.64770508 512.62817383 C0.70811513 512.6250221 -2.2304558 512.64854926 -5.16992188 512.67382812 C-18.54306192 512.71848737 -31.43916711 511.51301542 -44.625 509.3125 C-46.33055054 509.03031616 -46.33055054 509.03031616 -48.07055664 508.74243164 C-91.33802759 500.97044532 -132.38793216 480.98345309 -165.625 452.3125 C-166.37007813 451.67828125 -167.11515625 451.0440625 -167.8828125 450.390625 C-181.38779833 438.57948485 -194.05918743 425.82889772 -204.625 411.3125 C-205.48149066 410.16255169 -206.33826433 409.01281411 -207.1953125 407.86328125 C-213.23534209 399.67315742 -218.61867614 391.16870382 -223.625 382.3125 C-224.0271875 381.60528809 -224.429375 380.89807617 -224.84375 380.16943359 C-237.8691741 357.03404164 -246.61801461 331.86287591 -251.9375 305.875 C-252.08485596 305.15610596 -252.23221191 304.43721191 -252.3840332 303.6965332 C-255.35789088 288.05024391 -255.99800362 272.57681954 -255.9375 256.6875 C-255.93534485 255.66959381 -255.9331897 254.65168762 -255.93096924 253.60293579 C-255.88129854 238.99386477 -255.63040191 224.66174147 -252.625 210.3125 C-252.42632324 209.33764648 -252.22764648 208.36279297 -252.02294922 207.35839844 C-241.90232806 158.9765226 -219.9858123 114.98821731 -185.625 79.3125 C-184.99287598 78.65314453 -184.36075195 77.99378906 -183.70947266 77.31445312 C-174.56502521 67.82619695 -165.26765991 59.0862956 -154.625 51.3125 C-153.47394983 50.45443848 -152.32290823 49.59636549 -151.171875 48.73828125 C-142.98224019 42.70072604 -134.47961724 37.31792698 -125.625 32.3125 C-124.91778809 31.9103125 -124.21057617 31.508125 -123.48193359 31.09375 C-100.34654164 18.0683259 -75.17537591 9.31948539 -49.1875 4 C-48.46860596 3.85264404 -47.74971191 3.70528809 -47.0090332 3.5534668 C-31.36274391 0.57960912 -15.88931954 -0.06050362 0 0 Z M-33.625 108.3125 C-32.14542406 112.75305908 -32.14542406 112.75305908 -30.625 117.1796875 C-25.33291826 133.09727712 -25.32851854 149.0791774 -25.3503418 165.6652832 C-25.34598522 167.87324189 -25.34079895 170.08119907 -25.33485413 172.28915405 C-25.32155466 178.24178908 -25.32087529 184.19436026 -25.32341743 190.14700723 C-25.3244933 195.13656338 -25.3195881 200.12610694 -25.314812 205.11566037 C-25.3031175 217.56890027 -25.30392392 230.02211196 -25.31036881 242.47535285 C-25.31553458 253.24446892 -25.30428435 264.01349445 -25.28527059 274.78259263 C-25.26581252 285.89008906 -25.25794025 296.99754881 -25.26139385 308.10506314 C-25.26319727 314.32114052 -25.26066517 320.53713495 -25.24667931 326.75319862 C-25.23400745 332.60320001 -25.23613268 338.45302152 -25.24909019 344.30302048 C-25.25143527 346.43491746 -25.24879674 348.56682749 -25.24046707 350.69870949 C-25.18234493 366.74668986 -25.52892142 383.1425118 -31.7578125 398.18359375 C-32.79131389 400.57722521 -32.79131389 400.57722521 -33.625 404.3125 C-11.185 404.3125 11.255 404.3125 34.375 404.3125 C31.9 397.8775 31.9 397.8775 29.375 391.3125 C28.265625 387.21875 28.265625 387.21875 27.625 383.8125 C27.40328125 382.6884375 27.1815625 381.564375 26.953125 380.40625 C25.00286413 367.85314459 25.22607247 355.15694493 25.22973633 342.49365234 C25.22673898 340.41421448 25.22333513 338.33477717 25.21955872 336.25534058 C25.21077256 330.6393083 25.20838287 325.02329128 25.20774293 319.40725279 C25.2070293 315.88882637 25.20488907 312.37040377 25.20224571 308.8519783 C25.19300971 296.54959113 25.18890859 284.24721475 25.18969727 271.94482422 C25.1902974 260.52225056 25.17975361 249.09972422 25.1639536 237.67716253 C25.15082766 227.83294593 25.14551549 217.98874471 25.14615268 208.14451945 C25.1464062 202.28164605 25.14363596 196.41881475 25.13297462 190.55595016 C25.12320829 185.03515423 25.12327222 179.51443991 25.13049126 173.9936409 C25.13152662 171.98268767 25.12923766 169.97172913 25.1231308 167.96078491 C25.06434034 147.23745312 26.1089777 127.59988537 34.375 108.3125 C11.935 108.3125 -10.505 108.3125 -33.625 108.3125 Z " fill="#000000" transform="translate(255.625,-0.3125)"/>
</svg>
